<svg width="32" height="32" viewBox="0 0 32 32" fill="none" xmlns="http://www.w3.org/2000/svg">
<path d="M18.4401 25.3333C18.2409 25.334 18.044 25.2901 17.8641 25.2047C17.6841 25.1193 17.5255 24.9947 17.4001 24.84L10.9601 16.84C10.7639 16.6014 10.6567 16.3022 10.6567 15.9933C10.6567 15.6845 10.7639 15.3853 10.9601 15.1467L17.6267 7.14668C17.853 6.87439 18.1783 6.70316 18.5308 6.67065C18.8834 6.63814 19.2344 6.74703 19.5067 6.97334C19.779 7.19966 19.9502 7.52488 19.9827 7.87745C20.0153 8.23001 19.9064 8.58106 19.6801 8.85334L13.7201 16L19.4801 23.1467C19.6431 23.3424 19.7467 23.5807 19.7785 23.8334C19.8103 24.0862 19.7691 24.3427 19.6597 24.5728C19.5503 24.8028 19.3773 24.9967 19.1611 25.1315C18.945 25.2663 18.6948 25.3363 18.4401 25.3333Z" fill="#F2F2F2"/>
</svg>
