<svg width="28" height="30" viewBox="0 0 28 30" fill="none" xmlns="http://www.w3.org/2000/svg">
<path d="M21.5956 14.2125L16.3235 6.7125C16.2325 6.5841 16.12 6.47734 15.9925 6.39837C15.8649 6.31941 15.7249 6.26978 15.5804 6.25236C15.4358 6.23494 15.2897 6.25005 15.1504 6.29684C15.011 6.34363 14.8812 6.42117 14.7684 6.525C14.6551 6.62816 14.5609 6.75567 14.4912 6.90022C14.4215 7.04476 14.3778 7.20349 14.3624 7.36728C14.347 7.53106 14.3604 7.69668 14.4016 7.8546C14.4429 8.01252 14.5113 8.15964 14.603 8.2875L19.3125 15L14.3713 21.7125C14.2785 21.8388 14.2085 21.9846 14.1654 22.1417C14.1224 22.2987 14.1071 22.4637 14.1204 22.6275C14.1337 22.7912 14.1754 22.9503 14.2431 23.0958C14.3107 23.2412 14.403 23.3701 14.5147 23.475C14.7147 23.6569 14.9643 23.7541 15.2206 23.75C15.3826 23.7503 15.5427 23.7101 15.6895 23.6324C15.8363 23.5546 15.9662 23.4411 16.0699 23.3L21.5846 15.8C21.7484 15.5778 21.839 15.298 21.841 15.0085C21.843 14.719 21.7563 14.4376 21.5956 14.2125V14.2125Z" fill="#F2F2F2"/>
<path d="M8.60297 6.7125C8.41868 6.44563 8.1484 6.27265 7.85158 6.23163C7.55476 6.19061 7.25572 6.2849 7.02025 6.49375C6.78477 6.70261 6.63214 7.00893 6.59595 7.34532C6.55975 7.68172 6.64294 8.02063 6.82723 8.2875L11.5919 15L6.65076 21.7C6.55789 21.8263 6.48792 21.9722 6.44486 22.1292C6.40179 22.2862 6.38648 22.4512 6.3998 22.615C6.41312 22.7787 6.45481 22.9378 6.52247 23.0833C6.59014 23.2287 6.68246 23.3576 6.79414 23.4625C6.99257 23.6489 7.24232 23.7506 7.50002 23.75C7.66206 23.7503 7.82216 23.7101 7.96894 23.6324C8.11573 23.5546 8.24559 23.4411 8.34929 23.3L13.864 15.8C14.0262 15.5763 14.1149 15.2958 14.1149 15.0063C14.1149 14.7167 14.0262 14.4362 13.864 14.2125L8.60297 6.7125Z" fill="#F2F2F2"/>
</svg>
