<svg width="30" height="33" viewBox="0 0 30 33" fill="none" xmlns="http://www.w3.org/2000/svg">
<path d="M15 9.375C13.6882 9.375 12.4097 9.81721 11.3456 10.639C10.2814 11.4608 9.48555 12.6205 9.07073 13.9538C8.65591 15.2872 8.64316 16.7266 9.03429 18.0681C9.42542 19.4096 10.2006 20.5853 11.25 21.4286V26.7857C11.25 27.4961 11.5134 28.1774 11.9822 28.6798C12.4511 29.1821 13.087 29.4643 13.75 29.4643H16.25C16.913 29.4643 17.5489 29.1821 18.0178 28.6798C18.4866 28.1774 18.75 27.4961 18.75 26.7857V21.4286C19.7994 20.5853 20.5746 19.4096 20.9657 18.0681C21.3568 16.7266 21.3441 15.2872 20.9293 13.9538C20.5145 12.6205 19.7186 11.4608 18.6544 10.639C17.5903 9.81721 16.3118 9.375 15 9.375ZM16.875 19.5402C16.6842 19.6582 16.526 19.8281 16.4162 20.0327C16.3065 20.2373 16.2491 20.4694 16.25 20.7054V26.7857H13.75V20.7054C13.7509 20.4694 13.6935 20.2373 13.5838 20.0327C13.474 19.8281 13.3158 19.6582 13.125 19.5402C12.5564 19.1885 12.084 18.683 11.7549 18.0742C11.4259 17.4655 11.2518 16.7749 11.25 16.0714C11.25 15.0058 11.6451 13.9839 12.3483 13.2304C13.0516 12.4769 14.0054 12.0536 15 12.0536C15.9946 12.0536 16.9484 12.4769 17.6517 13.2304C18.3549 13.9839 18.75 15.0058 18.75 16.0714C18.7482 16.7749 18.5741 17.4655 18.2451 18.0742C17.916 18.683 17.4436 19.1885 16.875 19.5402Z" fill="#F2F2F2"/>
<path d="M15 8.03572C15.3315 8.03572 15.6495 7.89461 15.8839 7.64345C16.1183 7.39228 16.25 7.05163 16.25 6.69643V4.01786C16.25 3.66266 16.1183 3.32201 15.8839 3.07084C15.6495 2.81968 15.3315 2.67857 15 2.67857C14.6685 2.67857 14.3505 2.81968 14.1161 3.07084C13.8817 3.32201 13.75 3.66266 13.75 4.01786V6.69643C13.75 7.05163 13.8817 7.39228 14.1161 7.64345C14.3505 7.89461 14.6685 8.03572 15 8.03572Z" fill="#F2F2F2"/>
<path d="M26.25 14.7321H23.75C23.4185 14.7321 23.1005 14.8733 22.8661 15.1244C22.6317 15.3756 22.5 15.7162 22.5 16.0714C22.5 16.4266 22.6317 16.7673 22.8661 17.0185C23.1005 17.2696 23.4185 17.4107 23.75 17.4107H26.25C26.5815 17.4107 26.8995 17.2696 27.1339 17.0185C27.3683 16.7673 27.5 16.4266 27.5 16.0714C27.5 15.7162 27.3683 15.3756 27.1339 15.1244C26.8995 14.8733 26.5815 14.7321 26.25 14.7321Z" fill="#F2F2F2"/>
<path d="M6.25 14.7321H3.75C3.41848 14.7321 3.10054 14.8733 2.86612 15.1244C2.6317 15.3756 2.5 15.7162 2.5 16.0714C2.5 16.4266 2.6317 16.7673 2.86612 17.0185C3.10054 17.2696 3.41848 17.4107 3.75 17.4107H6.25C6.58152 17.4107 6.89946 17.2696 7.13388 17.0185C7.3683 16.7673 7.5 16.4266 7.5 16.0714C7.5 15.7162 7.3683 15.3756 7.13388 15.1244C6.89946 14.8733 6.58152 14.7321 6.25 14.7321Z" fill="#F2F2F2"/>
<path d="M9.5748 8.59821L7.7748 6.69643C7.53113 6.44956 7.20592 6.31652 6.87069 6.32656C6.53547 6.33661 6.21771 6.48892 5.9873 6.75C5.75689 7.01107 5.63272 7.35952 5.6421 7.71868C5.65147 8.07785 5.79363 8.41831 6.0373 8.66517L7.8373 10.5268C7.95809 10.6518 8.10115 10.7494 8.25793 10.8138C8.4147 10.8782 8.58199 10.9081 8.7498 10.9018C8.91818 10.9011 9.0847 10.864 9.23935 10.7926C9.39401 10.7213 9.53362 10.6172 9.6498 10.4866C9.87293 10.2252 9.99031 9.87973 9.97625 9.52581C9.9622 9.1719 9.81785 8.83836 9.5748 8.59821Z" fill="#F2F2F2"/>
<path d="M23.9875 6.76339C23.7533 6.51394 23.4365 6.37393 23.1063 6.37393C22.776 6.37393 22.4592 6.51394 22.225 6.76339L20.425 8.59821C20.1922 8.84914 20.0615 9.18858 20.0615 9.5424C20.0615 9.89622 20.1922 10.2357 20.425 10.4866C20.5412 10.6172 20.6808 10.7213 20.8355 10.7926C20.9901 10.864 21.1566 10.9011 21.325 10.9018C21.6468 10.9004 21.9558 10.7661 22.1875 10.5268L23.9875 8.66517C24.1047 8.54067 24.1977 8.39254 24.2611 8.22934C24.3246 8.06613 24.3573 7.89108 24.3573 7.71428C24.3573 7.53748 24.3246 7.36243 24.2611 7.19922C24.1977 7.03602 24.1047 6.88789 23.9875 6.76339Z" fill="#F2F2F2"/>
</svg>
