<svg width="17" height="71" viewBox="0 0 17 71" fill="none" xmlns="http://www.w3.org/2000/svg">
<path d="M12.1002 66.5949C12.0995 67.2029 11.9748 67.7348 11.7262 68.1905C11.4777 68.6462 11.1252 68.9977 10.6689 69.2452C10.2126 69.4846 9.6765 69.6039 9.0605 69.6032C8.4445 69.6024 7.90466 69.4738 7.44097 69.2172C6.9693 68.9526 6.60576 68.5841 6.35034 68.1118C6.09493 67.6395 5.9676 67.0954 5.96836 66.4794C5.96876 66.1594 6.01315 65.8394 6.10155 65.5195C6.18996 65.1916 6.31432 64.8998 6.47463 64.644C6.62694 64.3962 6.85109 64.2724 7.14709 64.2728C7.35509 64.2731 7.52703 64.3213 7.66292 64.4174C7.7908 64.5136 7.85464 64.6417 7.85444 64.8017C7.85431 64.9057 7.83819 65.0057 7.80607 65.1016C7.76596 65.1896 7.70981 65.3095 7.63762 65.4614C7.54942 65.6293 7.48123 65.7812 7.43306 65.9172C7.3849 66.0451 7.36072 66.1931 7.36051 66.3611C7.35995 66.8091 7.50353 67.1533 7.79123 67.3936C8.07094 67.626 8.4828 67.7425 9.0268 67.7431C9.5708 67.7438 9.98694 67.6283 10.2752 67.3967C10.5635 67.157 10.708 66.8132 10.7085 66.3652C10.7087 66.1972 10.6889 66.0492 10.6491 65.9211C10.6012 65.7931 10.5294 65.637 10.4336 65.4529C10.3618 65.3008 10.31 65.1807 10.2781 65.0927C10.2382 65.0046 10.2183 64.9086 10.2184 64.8046C10.2186 64.6526 10.2868 64.5287 10.4229 64.4329C10.559 64.329 10.7311 64.2772 10.9391 64.2775C11.2351 64.2779 11.4549 64.4021 11.5986 64.6503C11.7583 64.9065 11.8819 65.2027 11.9695 65.5388C12.0571 65.8749 12.1007 66.2269 12.1002 66.5949ZM12.0813 62.4772C12.081 62.7412 12.0087 62.9611 11.8645 63.137C11.7203 63.3048 11.5082 63.3885 11.2282 63.3882L4.3402 63.3796C4.0602 63.3793 3.8483 63.295 3.70451 63.1269C3.56073 62.9507 3.489 62.7306 3.48933 62.4666C3.48964 62.2106 3.56191 61.9987 3.70611 61.8309C3.85033 61.655 4.06244 61.5673 4.34244 61.5677L11.2304 61.5762C11.5104 61.5765 11.7223 61.6648 11.8661 61.841C12.0099 62.0091 12.0816 62.2212 12.0813 62.4772ZM12.0853 59.278C12.085 59.542 12.0127 59.7619 11.8685 59.9377C11.7243 60.1056 11.5122 60.1893 11.2322 60.189L6.85216 60.1835C6.57216 60.1832 6.36026 60.0949 6.21648 59.9188C6.0727 59.7426 6.00097 59.5265 6.00128 59.2705C6.0016 59.0145 6.07386 58.8026 6.21807 58.6348C6.36229 58.4589 6.5744 58.3712 6.8544 58.3715L11.2344 58.377C11.5144 58.3773 11.7263 58.4656 11.8701 58.6417C12.0139 58.8099 12.0856 59.022 12.0853 59.278ZM5.04129 59.2693C5.04089 59.5893 4.96058 59.8412 4.80035 60.025C4.63212 60.2088 4.40801 60.3005 4.12801 60.3002C3.84801 60.2998 3.62812 60.2075 3.46835 60.0233C3.30858 59.8392 3.22889 59.5871 3.22929 59.2671C3.22967 58.9551 3.31398 58.7072 3.48221 58.5234C3.64244 58.3316 3.85856 58.2358 4.13056 58.2362C4.41056 58.2365 4.63445 58.3288 4.80222 58.513C4.96199 58.6972 5.04168 58.9493 5.04129 59.2693ZM12.1155 54.2668C12.1147 54.8748 11.9901 55.4067 11.7415 55.8624C11.4929 56.3181 11.1405 56.6696 10.6842 56.9171C10.2279 57.1565 9.69176 57.2758 9.07576 57.2751C8.45976 57.2743 7.91992 57.1456 7.45623 56.8891C6.98456 56.6245 6.62102 56.256 6.3656 55.7837C6.11019 55.3114 5.98286 54.7672 5.98362 54.1512C5.98402 53.8312 6.02841 53.5113 6.11681 53.1914C6.20522 52.8635 6.32958 52.5717 6.48989 52.3159C6.6422 52.0681 6.86635 51.9443 7.16235 51.9447C7.37035 51.945 7.54229 51.9932 7.67817 52.0893C7.80606 52.1855 7.8699 52.3136 7.8697 52.4736C7.86957 52.5776 7.85345 52.6776 7.82133 52.7735C7.78122 52.8615 7.72507 52.9814 7.65288 53.1333C7.56467 53.3012 7.49649 53.4531 7.44832 53.5891C7.40016 53.717 7.37598 53.865 7.37577 54.033C7.37521 54.481 7.51879 54.8251 7.80649 55.0655C8.0862 55.2978 8.49806 55.4144 9.04206 55.415C9.58606 55.4157 10.0022 55.3002 10.2905 55.0686C10.5788 54.8289 10.7232 54.4851 10.7238 54.0371C10.724 53.8691 10.7042 53.7211 10.6643 53.593C10.6165 53.465 10.5447 53.3089 10.4489 53.1248C10.3771 52.9727 10.3252 52.8526 10.2933 52.7646C10.2534 52.6765 10.2336 52.5805 10.2337 52.4765C10.2339 52.3245 10.302 52.2006 10.4382 52.1048C10.5743 52.0009 10.7464 51.9491 10.9544 51.9494C11.2504 51.9498 11.4702 52.074 11.6139 52.3222C11.7736 52.5784 11.8972 52.8746 11.9848 53.2107C12.0724 53.5468 12.1159 53.8988 12.1155 54.2668ZM10.6263 45.5033C10.8026 45.3195 11.0027 45.2278 11.2267 45.228C11.4507 45.2283 11.6506 45.3126 11.8264 45.4808C12.0022 45.641 12.0899 45.8291 12.0897 46.0451C12.0894 46.2531 12.0052 46.445 11.8369 46.6208L9.3977 49.2458L11.2337 49.248C11.5137 49.2484 11.7256 49.3367 11.8694 49.5128C12.0132 49.681 12.0849 49.8931 12.0846 50.1491C12.0843 50.4131 12.012 50.633 11.8678 50.8088C11.7236 50.9767 11.5115 51.0604 11.2315 51.06L4.35546 51.0515C4.07546 51.0512 3.86356 50.9669 3.71977 50.7987C3.57599 50.6226 3.50426 50.4025 3.50459 50.1385C3.5049 49.8825 3.57717 49.6706 3.72137 49.5027C3.86559 49.3269 4.0777 49.2392 4.3577 49.2395L8.6537 49.2449L6.29267 46.8419C6.11689 46.6657 6.02913 46.4696 6.0294 46.2536C6.02967 46.0296 6.11392 45.8337 6.28212 45.6659C6.44233 45.4981 6.63444 45.4144 6.85844 45.4146C7.06644 45.4149 7.26232 45.5071 7.44609 45.6914L8.96812 47.2892L10.6263 45.5033ZM6.00887 33.7506C6.00966 33.1106 6.20627 32.6188 6.5987 32.2753C6.98312 31.9318 7.61534 31.7606 8.49534 31.7617L11.2673 31.7651C11.5473 31.7655 11.7592 31.8497 11.903 32.0179C12.0468 32.1861 12.1185 32.4022 12.1182 32.6662C12.1179 32.9222 12.0456 33.1381 11.9014 33.3139C11.7572 33.4897 11.5451 33.5775 11.2651 33.5771L8.46909 33.5736C8.08509 33.5732 7.81701 33.6408 7.66484 33.7766C7.50468 33.9044 7.42444 34.1044 7.4241 34.3764C7.42368 34.7124 7.53935 34.9805 7.7711 35.1808C8.00286 35.3811 8.32673 35.4815 8.74273 35.482L11.2627 35.4851C11.5427 35.4854 11.7546 35.5697 11.8984 35.7379C12.0422 35.9061 12.1139 36.1222 12.1136 36.3862C12.1133 36.6422 12.041 36.8581 11.8968 37.0339C11.7526 37.2097 11.5405 37.2974 11.2605 37.2971L8.46449 37.2936C8.08049 37.2932 7.81241 37.3608 7.66024 37.4966C7.50008 37.6244 7.41983 37.8243 7.41949 38.0963C7.41908 38.4323 7.53475 38.7005 7.7665 38.9008C7.99825 39.1011 8.32213 39.2015 8.73813 39.202L11.2581 39.2051C11.5381 39.2054 11.75 39.2937 11.8938 39.4699C12.0376 39.6381 12.1093 39.8502 12.109 40.1062C12.1087 40.3622 12.0364 40.5781 11.8922 40.7539C11.748 40.9297 11.5359 41.0174 11.2559 41.0171L6.85189 41.0116C6.58789 41.0113 6.38399 40.9231 6.24021 40.7469C6.09644 40.5627 6.02471 40.3426 6.02503 40.0866C6.02533 39.8466 6.09757 39.6467 6.24177 39.4869C6.37797 39.3271 6.57007 39.2473 6.81807 39.2476L6.93807 39.2478C6.63431 39.0554 6.40261 38.8071 6.24299 38.5029C6.08338 38.1907 6.00381 37.8386 6.0043 37.4466C6.00482 37.0226 6.09326 36.6667 6.26962 36.3789C6.43799 36.0831 6.71427 35.8555 7.09847 35.6959C6.76269 35.5115 6.49902 35.2512 6.30743 34.915C6.10786 34.5707 6.00834 34.1826 6.00887 33.7506ZM10.3029 25.6707C10.3031 25.5107 10.3672 25.3828 10.4954 25.287C10.6235 25.1831 10.7875 25.1313 10.9875 25.1316C11.1235 25.1317 11.2515 25.1719 11.3714 25.252C11.4833 25.3322 11.5792 25.4443 11.659 25.5884C11.8026 25.8606 11.9223 26.1767 12.0178 26.5368C12.1054 26.897 12.1489 27.229 12.1486 27.533C12.1478 28.173 12.0231 28.7329 11.7745 29.2125C11.5259 29.6842 11.1735 30.0478 10.7171 30.3032C10.2528 30.5587 9.70867 30.686 9.08467 30.6852C8.48467 30.6845 7.95282 30.5598 7.48913 30.3112C7.02544 30.0627 6.66586 29.7182 6.41041 29.2779C6.14695 28.8376 6.01557 28.3374 6.01627 27.7774C6.01693 27.2414 6.13751 26.7736 6.378 26.3739C6.61051 25.9661 6.9469 25.6506 7.38718 25.4271C7.81945 25.2036 8.32759 25.0923 8.91159 25.093C9.08759 25.0932 9.22354 25.1374 9.31943 25.2255C9.40733 25.3056 9.45118 25.4217 9.451 25.5737L9.44684 28.9337C9.91891 28.8782 10.2631 28.7347 10.4794 28.5029C10.6877 28.2712 10.7921 27.9393 10.7926 27.5073C10.7929 27.2753 10.7651 27.0673 10.7094 26.8832C10.6536 26.6992 10.5779 26.4951 10.4821 26.2709C10.4343 26.1589 10.3944 26.0508 10.3625 25.9468C10.3227 25.8427 10.3028 25.7507 10.3029 25.6707ZM7.26432 27.731C7.2639 28.075 7.37556 28.3511 7.5993 28.5594C7.81504 28.7676 8.13089 28.892 8.54684 28.9325L8.5497 26.6166C8.12567 26.64 7.80554 26.7476 7.5893 26.9394C7.37308 27.1231 7.26475 27.387 7.26432 27.731Z" fill="#F2F2F2"/>
<path d="M3.48666 7.09334C3.54263 7.16084 3.61136 7.21665 3.68892 7.25755C3.76649 7.29845 3.85136 7.32365 3.93868 7.3317C4.026 7.33975 4.11405 7.33049 4.19778 7.30446C4.28152 7.27843 4.35929 7.23614 4.42666 7.18001L7.33333 4.76V12.6667C7.33333 12.8435 7.40356 13.0131 7.52859 13.1381C7.65361 13.2631 7.82318 13.3333 7.99999 13.3333C8.1768 13.3333 8.34637 13.2631 8.4714 13.1381C8.59642 13.0131 8.66666 12.8435 8.66666 12.6667V4.76L11.5733 7.18001C11.6407 7.23604 11.7185 7.27824 11.8022 7.30421C11.886 7.33018 11.974 7.3394 12.0613 7.33135C12.1486 7.3233 12.2334 7.29814 12.311 7.2573C12.3885 7.21647 12.4573 7.16075 12.5133 7.09334C12.5694 7.02593 12.6116 6.94814 12.6375 6.86442C12.6635 6.78069 12.6727 6.69268 12.6647 6.60539C12.6566 6.5181 12.6315 6.43325 12.5906 6.35569C12.5498 6.27813 12.4941 6.20937 12.4267 6.15334L8.42666 2.82001L8.32666 2.76001L8.23999 2.71334C8.08554 2.65374 7.91444 2.65374 7.75999 2.71334L7.67333 2.76001L7.57333 2.82001L3.57333 6.15334C3.50582 6.2093 3.45002 6.27804 3.40912 6.3556C3.36822 6.43317 3.34302 6.51804 3.33497 6.60536C3.32692 6.69268 3.33617 6.78072 3.3622 6.86446C3.38823 6.94819 3.43053 7.02597 3.48666 7.09334Z" fill="#F2F2F2"/>
</svg>
