<svg width="30" height="33" viewBox="0 0 30 33" fill="none" xmlns="http://www.w3.org/2000/svg">
<path d="M13.8877 30.8036C13.7427 30.8034 13.5989 30.7762 13.4627 30.7232C13.1999 30.6201 12.9769 30.4255 12.8296 30.1705C12.6823 29.9156 12.6191 29.615 12.6502 29.317L13.6127 19.8214H6.25018C6.02309 19.8218 5.8002 19.7559 5.60544 19.6308C5.41069 19.5056 5.25143 19.326 5.14476 19.1112C5.0381 18.8964 4.98806 18.6546 5.00003 18.4116C5.01199 18.1686 5.08551 17.9337 5.21268 17.7321L15.0752 1.92857C15.2312 1.68126 15.4598 1.49686 15.7247 1.40466C15.9897 1.31245 16.2758 1.31773 16.5377 1.41964C16.7894 1.51977 17.0043 1.70409 17.1507 1.9453C17.297 2.18651 17.367 2.4718 17.3502 2.75893L16.3877 12.3214H23.7502C23.9773 12.3211 24.2002 12.387 24.3949 12.5121C24.5897 12.6372 24.7489 12.8168 24.8556 13.0316C24.9623 13.2464 25.0123 13.4883 25.0003 13.7313C24.9884 13.9743 24.9148 14.2091 24.7877 14.4107L14.9252 30.2143C14.8105 30.396 14.6559 30.5448 14.475 30.6476C14.2941 30.7503 14.0924 30.8039 13.8877 30.8036ZM8.58768 17.1429H15.0002C15.1746 17.1433 15.347 17.1829 15.5063 17.259C15.6656 17.3351 15.8083 17.4461 15.9252 17.5848C16.0431 17.7255 16.132 17.8912 16.1858 18.0713C16.2397 18.2513 16.2574 18.4416 16.2377 18.6295L15.6752 24.1875L21.4127 15H15.0002C14.8238 15.0012 14.6492 14.9623 14.4878 14.886C14.3264 14.8096 14.182 14.6976 14.0639 14.5572C13.9458 14.4168 13.8568 14.2512 13.8028 14.0713C13.7487 13.8914 13.7308 13.7012 13.7502 13.5134L14.3127 7.95536L8.58768 17.1429Z" fill="#F2F2F2"/>
</svg>
