<svg width="60" height="60" viewBox="0 0 60 60" fill="none" xmlns="http://www.w3.org/2000/svg">
<rect width="60" height="60" rx="5" fill="#386BED"/>
<path d="M25.8333 44.5834C25.3466 44.5843 24.8748 44.4148 24.5 44.1042C24.289 43.9293 24.1147 43.7145 23.9869 43.4721C23.859 43.2297 23.7803 42.9645 23.7551 42.6916C23.73 42.4188 23.7589 42.1436 23.8402 41.8819C23.9216 41.6203 24.0537 41.3772 24.2292 41.1667L33.5625 30L24.5625 18.8125C24.3895 18.5994 24.2602 18.3542 24.1822 18.091C24.1043 17.8278 24.0791 17.5518 24.1081 17.2788C24.1371 17.0058 24.2198 16.7413 24.3515 16.5004C24.4831 16.2595 24.661 16.0469 24.875 15.875C25.0906 15.6854 25.343 15.5423 25.6164 15.4548C25.8899 15.3673 26.1785 15.3373 26.4641 15.3667C26.7497 15.396 27.0262 15.4841 27.2762 15.6253C27.5261 15.7666 27.7442 15.958 27.9167 16.1875L37.9792 28.6875C38.2856 29.0603 38.4531 29.5279 38.4531 30.0104C38.4531 30.493 38.2856 30.9606 37.9792 31.3334L27.5625 43.8334C27.3535 44.0855 27.088 44.2848 26.7876 44.4151C26.4871 44.5454 26.1602 44.603 25.8333 44.5834Z" fill="#F2F2F2"/>
</svg>
