<svg width="25" height="25" viewBox="0 0 25 25" fill="none" xmlns="http://www.w3.org/2000/svg">
<path d="M16.9166 22.9167C16.6404 22.9167 16.3754 22.8069 16.1801 22.6116C15.9847 22.4162 15.875 22.1513 15.875 21.875V19.1667C15.9073 18.8551 15.874 18.5403 15.7771 18.2424C15.6802 17.9446 15.5219 17.6704 15.3125 17.4375C15.1828 17.2968 15.0943 17.1232 15.0568 16.9356C15.0193 16.748 15.0342 16.5537 15.0999 16.374C15.1655 16.1943 15.2794 16.0361 15.4289 15.9169C15.5785 15.7976 15.7581 15.7219 15.9479 15.6979C18.4896 15.3958 20.8333 14.5833 20.8333 10.1771C20.8341 9.35424 20.5913 8.54958 20.1354 7.86457C19.7147 7.23398 19.5611 6.46235 19.7083 5.71874C19.8022 5.23366 19.8022 4.73507 19.7083 4.24999C18.9283 4.51372 18.1939 4.89673 17.5312 5.38541C17.4059 5.47438 17.2625 5.53453 17.1112 5.56154C16.96 5.58856 16.8046 5.58177 16.6562 5.54166C14.7764 5.01047 12.7861 5.01047 10.9062 5.54166C10.7579 5.58177 10.6025 5.58856 10.4512 5.56154C10.2999 5.53453 10.1565 5.47438 10.0312 5.38541C9.3645 4.89107 8.6223 4.50766 7.83331 4.24999C7.73425 4.73456 7.73425 5.23417 7.83331 5.71874C7.96986 6.47171 7.80931 7.2483 7.3854 7.88541C6.9315 8.57522 6.68893 9.38257 6.68748 10.2083C6.68748 14.2604 8.64581 15.3437 11.5833 15.7187C11.7755 15.7426 11.9573 15.8196 12.1082 15.941C12.2591 16.0625 12.3731 16.2236 12.4375 16.4062C12.498 16.5835 12.5097 16.7738 12.4712 16.9571C12.4327 17.1404 12.3455 17.31 12.2187 17.4479C12.0161 17.6645 11.8606 17.9207 11.762 18.2004C11.6634 18.4801 11.6238 18.7772 11.6458 19.0729V21.875C11.6458 22.1513 11.5361 22.4162 11.3407 22.6116C11.1454 22.8069 10.8804 22.9167 10.6041 22.9167C10.3279 22.9167 10.0629 22.8069 9.86758 22.6116C9.67222 22.4162 9.56248 22.1513 9.56248 21.875V21.2812C8.5389 21.399 7.50209 21.2618 6.54434 20.882C5.58658 20.5021 4.73758 19.8914 4.0729 19.1042C3.73123 18.7255 3.32131 18.4145 2.86456 18.1875C2.73187 18.1533 2.60722 18.0933 2.49772 18.0109C2.38821 17.9285 2.29601 17.8254 2.22636 17.7074C2.15672 17.5894 2.111 17.4588 2.09182 17.3231C2.07264 17.1875 2.08036 17.0493 2.11456 16.9167C2.14876 16.784 2.20876 16.6593 2.29113 16.5498C2.37351 16.4403 2.47664 16.3481 2.59465 16.2785C2.71266 16.2088 2.84323 16.1631 2.9789 16.1439C3.11458 16.1247 3.25271 16.1325 3.3854 16.1667C4.1867 16.4586 4.90269 16.9454 5.46873 17.5833C6.5104 18.625 7.55206 19.5417 9.53123 19.1667C9.49643 18.6074 9.57801 18.047 9.77081 17.5208C7.62498 16.9792 4.56248 15.4375 4.56248 10.2292C4.55973 8.99544 4.92218 7.7885 5.60415 6.76041C5.73082 6.57062 5.77933 6.33926 5.73956 6.11457C5.52907 4.99017 5.64846 3.82888 6.08331 2.77082C6.1424 2.62974 6.23183 2.50341 6.34525 2.40079C6.45867 2.29817 6.59329 2.22179 6.73956 2.17707C7.09373 2.07291 8.36456 1.86457 10.7708 3.42707C12.7187 2.95833 14.75 2.95833 16.6979 3.42707C19.1041 1.86457 20.375 2.06249 20.7187 2.17707C20.865 2.22179 20.9996 2.29817 21.113 2.40079C21.2265 2.50341 21.3159 2.62974 21.375 2.77082C21.8107 3.83232 21.9301 4.99718 21.7187 6.12499C21.6974 6.22661 21.6966 6.33145 21.7162 6.4334C21.7359 6.53535 21.7757 6.63235 21.8333 6.71874C22.5173 7.74979 22.8798 8.96064 22.875 10.1979C22.875 15.4792 19.8333 17.0104 17.6666 17.4896C17.8575 18.0485 17.9354 18.6398 17.8958 19.2292V21.875C17.8963 22.1408 17.7952 22.3967 17.6131 22.5903C17.4311 22.784 17.1819 22.9007 16.9166 22.9167Z" fill="#386BED"/>
</svg>
