<svg width="30" height="30" viewBox="0 0 30 30" fill="none" xmlns="http://www.w3.org/2000/svg">
<path d="M26.2498 14.1875C26.2355 13.955 26.1565 13.7312 26.0218 13.5413C25.887 13.3514 25.7019 13.2028 25.4873 13.1125L22.7998 11.9625L25.6248 10.3375C25.8251 10.2223 25.9895 10.0538 26.0999 9.8508C26.2102 9.64779 26.2621 9.41818 26.2498 9.18746C26.2355 8.95503 26.1565 8.73124 26.0218 8.5413C25.887 8.35136 25.7019 8.20283 25.4873 8.11246L15.4873 3.84996C15.3331 3.78464 15.1673 3.75098 14.9998 3.75098C14.8323 3.75098 14.6665 3.78464 14.5123 3.84996L4.51231 8.11246C4.2977 8.20283 4.1126 8.35136 3.97788 8.5413C3.84315 8.73124 3.76416 8.95503 3.74981 9.18746C3.73753 9.41818 3.78944 9.64779 3.89977 9.8508C4.0101 10.0538 4.17453 10.2223 4.37481 10.3375L7.19982 11.9625L4.51231 13.1125C4.2977 13.2028 4.1126 13.3514 3.97788 13.5413C3.84315 13.7312 3.76416 13.955 3.74981 14.1875C3.73753 14.4182 3.78944 14.6478 3.89977 14.8508C4.0101 15.0538 4.17453 15.2223 4.37481 15.3375L7.19982 16.9625L4.51231 18.1125C4.2977 18.2028 4.1126 18.3514 3.97788 18.5413C3.84315 18.7312 3.76416 18.955 3.74981 19.1875C3.73753 19.4182 3.78944 19.6478 3.89977 19.8508C4.0101 20.0538 4.17453 20.2223 4.37481 20.3375L14.3748 26.0875C14.5648 26.1972 14.7804 26.2549 14.9998 26.2549C15.2192 26.2549 15.4348 26.1972 15.6248 26.0875L25.6248 20.3375C25.8251 20.2223 25.9895 20.0538 26.0999 19.8508C26.2102 19.6478 26.2621 19.4182 26.2498 19.1875C26.2355 18.955 26.1565 18.7312 26.0218 18.5413C25.887 18.3514 25.7019 18.2028 25.4873 18.1125L22.7998 16.9625L25.6248 15.3375C25.8251 15.2223 25.9895 15.0538 26.0999 14.8508C26.2102 14.6478 26.2621 14.4182 26.2498 14.1875ZM14.9998 6.36246L22.1998 9.42496L14.9998 13.5625L7.79981 9.42496L14.9998 6.36246ZM14.3748 16.0875C14.5648 16.1972 14.7804 16.2549 14.9998 16.2549C15.2192 16.2549 15.4348 16.1972 15.6248 16.0875L20.0873 13.5875L22.1998 14.4875L14.9998 18.5625L7.79981 14.425L9.91231 13.525L14.3748 16.0875ZM22.1998 19.425L14.9998 23.5625L7.79981 19.425L9.91231 18.525L14.3748 21.0875C14.5648 21.1972 14.7804 21.2549 14.9998 21.2549C15.2192 21.2549 15.4348 21.1972 15.6248 21.0875L20.0873 18.525L22.1998 19.425Z" fill="#F2F2F2"/>
</svg>
