<svg width="30" height="33" viewBox="0 0 30 33" fill="none" xmlns="http://www.w3.org/2000/svg">
<path d="M17.9125 26.7857H17.65C17.1209 26.7295 16.6224 26.494 16.2268 26.1135C15.8311 25.7329 15.559 25.2272 15.45 24.6696L12.1 8.03572L8.65 16.6071C8.55242 16.8467 8.39153 17.0505 8.18719 17.1932C7.98284 17.336 7.74396 17.4116 7.5 17.4107H3.75C3.41848 17.4107 3.10054 17.2696 2.86612 17.0185C2.6317 16.7673 2.5 16.4266 2.5 16.0714C2.5 15.7162 2.6317 15.3756 2.86612 15.1244C3.10054 14.8733 3.41848 14.7321 3.75 14.7321H6.675L9.8125 6.97768C10.0237 6.45732 10.3837 6.02226 10.8405 5.73524C11.2974 5.44822 11.8275 5.32407 12.3545 5.38068C12.8815 5.43728 13.378 5.67174 13.7726 6.05022C14.1672 6.42871 14.4394 6.93168 14.55 7.48661L17.9 24.1071L21.35 15.5625C21.4438 15.3179 21.603 15.1086 21.8077 14.9608C22.0123 14.813 22.2532 14.7335 22.5 14.7321H26.25C26.5815 14.7321 26.8995 14.8733 27.1339 15.1244C27.3683 15.3756 27.5 15.7162 27.5 16.0714C27.5 16.4266 27.3683 16.7673 27.1339 17.0185C26.8995 17.2696 26.5815 17.4107 26.25 17.4107H23.325L20.1875 25.1652C19.9959 25.6427 19.6788 26.0501 19.2749 26.3378C18.8709 26.6256 18.3976 26.7812 17.9125 26.7857Z" fill="#F2F2F2"/>
</svg>
