<svg width="27" height="30" viewBox="0 0 27 30" fill="none" xmlns="http://www.w3.org/2000/svg">
<path d="M12.8382 6.5375C12.7268 6.43225 12.5981 6.35295 12.4596 6.30415C12.321 6.25534 12.1754 6.23799 12.0309 6.25308C11.8864 6.26818 11.746 6.31542 11.6177 6.39211C11.4894 6.4688 11.3757 6.57343 11.2831 6.7L5.76836 14.2C5.60614 14.4237 5.51746 14.7042 5.51746 14.9938C5.51746 15.2833 5.60614 15.5638 5.76836 15.7875L11.0956 23.2875C11.1994 23.4325 11.3305 23.5494 11.4794 23.6294C11.6283 23.7094 11.7911 23.7506 11.9559 23.75C12.1646 23.7508 12.3692 23.6845 12.546 23.5587C12.7228 23.433 12.8644 23.253 12.9545 23.0396C13.0446 22.8262 13.0794 22.5882 13.0549 22.3533C13.0304 22.1184 12.9476 21.8962 12.8162 21.7125L8.04042 15L12.9816 8.2875C13.1657 8.03313 13.2539 7.70673 13.2271 7.37912C13.2003 7.05151 13.0605 6.74911 12.8382 6.5375V6.5375Z" fill="#F2F2F2"/>
<path d="M15.761 15L20.7022 8.2875C20.8894 8.03223 20.9795 7.70312 20.9526 7.37259C20.9257 7.04206 20.784 6.73717 20.5588 6.525C20.3336 6.31282 20.0432 6.21075 19.7515 6.24122C19.4599 6.2717 19.1909 6.43223 19.0037 6.6875L13.4889 14.1875C13.3267 14.4112 13.238 14.6917 13.238 14.9812C13.238 15.2708 13.3267 15.5513 13.4889 15.775L18.8162 23.275C18.92 23.42 19.0511 23.5368 19.2 23.6169C19.3489 23.6969 19.5117 23.7381 19.6764 23.7375C19.8852 23.7383 20.0898 23.672 20.2666 23.5462C20.4433 23.4205 20.585 23.2404 20.6751 23.0271C20.7652 22.8137 20.8 22.5757 20.7755 22.3408C20.751 22.1059 20.6682 21.8837 20.5367 21.7L15.761 15Z" fill="#F2F2F2"/>
</svg>
