<svg width="50" height="50" viewBox="0 0 50 50" fill="none" xmlns="http://www.w3.org/2000/svg">
<path d="M24.25 10.8958C24.0395 10.7204 23.7964 10.5883 23.5347 10.5069C23.2731 10.4256 22.9979 10.3967 22.725 10.4218C22.4522 10.447 22.1869 10.5257 21.9446 10.6535C21.7022 10.7813 21.4874 10.9557 21.3125 11.1667L10.8958 23.6667C10.5894 24.0395 10.4219 24.507 10.4219 24.9896C10.4219 25.4721 10.5894 25.9397 10.8958 26.3125L20.9583 38.8125C21.1544 39.0542 21.4021 39.2489 21.6833 39.3823C21.9645 39.5157 22.2721 39.5844 22.5833 39.5833C22.9775 39.5847 23.3641 39.4741 23.698 39.2645C24.0319 39.055 24.2995 38.7549 24.4697 38.3993C24.6398 38.0437 24.7056 37.6471 24.6594 37.2556C24.6131 36.864 24.4567 36.4937 24.2083 36.1875L15.1875 25L24.5208 13.8125C24.8686 13.3886 25.0352 12.8446 24.9845 12.2985C24.9338 11.7525 24.6699 11.2485 24.25 10.8958Z" fill="#386BED"/>
<path d="M29.7709 25L39.1042 13.8125C39.4578 13.3871 39.6279 12.8386 39.5771 12.2877C39.5264 11.7368 39.2588 11.2286 38.8334 10.875C38.4079 10.5214 37.8594 10.3513 37.3085 10.402C36.7576 10.4528 36.2495 10.7204 35.8959 11.1458L25.4792 23.6458C25.1728 24.0186 25.0052 24.4862 25.0052 24.9688C25.0052 25.4513 25.1728 25.9189 25.4792 26.2917L35.5417 38.7917C35.7378 39.0334 35.9855 39.2281 36.2667 39.3615C36.5479 39.4949 36.8554 39.5636 37.1667 39.5625C37.5609 39.5639 37.9475 39.4533 38.2814 39.2437C38.6153 39.0341 38.8829 38.7341 39.053 38.3785C39.2232 38.0228 39.289 37.6262 39.2427 37.2347C39.1965 36.8432 39.0401 36.4728 38.7917 36.1667L29.7709 25Z" fill="#386BED"/>
</svg>
