<svg width="50" height="50" viewBox="0 0 50 50" fill="none" xmlns="http://www.w3.org/2000/svg">
<path d="M39.125 23.6875L29.1667 11.1875C28.9948 10.9735 28.7822 10.7956 28.5413 10.6639C28.3004 10.5323 28.0359 10.4496 27.7629 10.4206C27.4899 10.3916 27.2139 10.4168 26.9507 10.4947C26.6875 10.5727 26.4423 10.7019 26.2292 10.875C26.0152 11.0469 25.8372 11.2594 25.7056 11.5004C25.574 11.7413 25.4913 12.0058 25.4623 12.2788C25.4332 12.5518 25.4584 12.8278 25.5364 13.091C25.6144 13.3542 25.7436 13.5994 25.9167 13.8125L34.8125 25L25.4792 36.1875C25.3037 36.398 25.1716 36.6411 25.0902 36.9027C25.0089 37.1644 24.98 37.4396 25.0051 37.7124C25.0303 37.9853 25.109 38.2505 25.2369 38.4929C25.3647 38.7353 25.539 38.9501 25.75 39.125C26.1277 39.4281 26.5991 39.5902 27.0833 39.5833C27.3894 39.5838 27.6918 39.5169 27.9691 39.3873C28.2463 39.2576 28.4916 39.0685 28.6875 38.8333L39.1042 26.3333C39.4135 25.963 39.5847 25.4967 39.5885 25.0141C39.5923 24.5316 39.4285 24.0627 39.125 23.6875Z" fill="#386BED"/>
<path d="M14.5833 11.1875C14.2352 10.7427 13.7247 10.4544 13.164 10.386C12.6034 10.3177 12.0385 10.4748 11.5937 10.8229C11.1489 11.171 10.8606 11.6815 10.7923 12.2422C10.7239 12.8029 10.881 13.3677 11.2291 13.8125L20.2291 25L10.8958 36.1667C10.7204 36.3772 10.5882 36.6202 10.5069 36.8819C10.4255 37.1436 10.3966 37.4187 10.4218 37.6916C10.4469 37.9645 10.5257 38.2297 10.6535 38.4721C10.7813 38.7145 10.9557 38.9293 11.1666 39.1042C11.5414 39.4148 12.0132 39.5843 12.5 39.5833C12.806 39.5838 13.1084 39.5169 13.3857 39.3873C13.663 39.2576 13.9083 39.0685 14.1041 38.8333L24.5208 26.3333C24.8272 25.9606 24.9947 25.493 24.9947 25.0104C24.9947 24.5279 24.8272 24.0603 24.5208 23.6875L14.5833 11.1875Z" fill="#386BED"/>
</svg>
