<svg width="60" height="60" viewBox="0 0 60 60" fill="none" xmlns="http://www.w3.org/2000/svg">
<rect width="60" height="60" rx="5" fill="#386BED"/>
<path d="M33.8126 44.5833C33.5013 44.5843 33.1938 44.5156 32.9126 44.3823C32.6314 44.2489 32.3836 44.0542 32.1876 43.8124L22.1251 31.3124C21.8186 30.9397 21.6511 30.4721 21.6511 29.9895C21.6511 29.507 21.8186 29.0394 22.1251 28.6666L32.5417 16.1666C32.8953 15.7412 33.4035 15.4736 33.9544 15.4228C34.5053 15.372 35.0538 15.5422 35.4792 15.8958C35.9047 16.2494 36.1722 16.7575 36.223 17.3084C36.2738 17.8593 36.1037 18.4078 35.7501 18.8333L26.4376 29.9999L35.4376 41.1666C35.6923 41.4724 35.8541 41.8448 35.9039 42.2397C35.9536 42.6346 35.8892 43.0355 35.7183 43.3949C35.5473 43.7543 35.277 44.0573 34.9393 44.2679C34.6015 44.4785 34.2105 44.5879 33.8126 44.5833Z" fill="#F2F2F2"/>
</svg>
