<svg width="30" height="30" viewBox="0 0 30 30" fill="none" xmlns="http://www.w3.org/2000/svg">
<path d="M10.8 6.5375C10.6737 6.43225 10.5279 6.35295 10.3709 6.30415C10.2139 6.25534 10.0488 6.23799 9.88507 6.25308C9.72135 6.26818 9.56221 6.31542 9.41678 6.39211C9.27135 6.4688 9.14247 6.57343 9.03753 6.7L2.78753 14.2C2.60368 14.4237 2.50317 14.7042 2.50317 14.9938C2.50317 15.2833 2.60368 15.5638 2.78753 15.7875L8.82503 23.2875C8.94268 23.4325 9.09133 23.5494 9.26005 23.6294C9.42878 23.7094 9.61329 23.7506 9.80003 23.75C10.0366 23.7508 10.2685 23.6845 10.4688 23.5587C10.6692 23.433 10.8297 23.253 10.9318 23.0396C11.034 22.8262 11.0734 22.5882 11.0457 22.3533C11.0179 22.1184 10.9241 21.8962 10.775 21.7125L5.36253 15L10.9625 8.3C11.0678 8.17369 11.1471 8.02786 11.1959 7.87086C11.2447 7.71385 11.262 7.54876 11.247 7.38504C11.2319 7.22132 11.1846 7.06218 11.1079 6.91675C11.0312 6.77132 10.9266 6.64244 10.8 6.5375Z" fill="#F2F2F2"/>
<path d="M27.225 14.2125L21.25 6.71252C21.1468 6.58411 21.0193 6.47736 20.8748 6.39839C20.7302 6.31942 20.5715 6.2698 20.4077 6.25238C20.2439 6.23495 20.0783 6.25007 19.9204 6.29686C19.7625 6.34365 19.6154 6.42119 19.4875 6.52502C19.3591 6.62817 19.2523 6.75569 19.1734 6.90023C19.0944 7.04478 19.0448 7.20351 19.0274 7.36729C19.0099 7.53108 19.0251 7.69669 19.0718 7.85462C19.1186 8.01254 19.1962 8.15966 19.3 8.28752L24.6375 15L19.0375 21.7125C18.9322 21.8388 18.853 21.9847 18.8041 22.1417C18.7553 22.2987 18.738 22.4638 18.7531 22.6275C18.7682 22.7912 18.8154 22.9503 18.8921 23.0958C18.9688 23.2412 19.0734 23.3701 19.2 23.475C19.4266 23.6569 19.7095 23.7541 20 23.75C20.1836 23.7503 20.3651 23.7102 20.5314 23.6324C20.6978 23.5546 20.845 23.4411 20.9625 23.3L27.2125 15.8C27.3981 15.5778 27.5008 15.298 27.5031 15.0085C27.5054 14.719 27.4071 14.4376 27.225 14.2125Z" fill="#F2F2F2"/>
</svg>
