<svg width="25" height="25" viewBox="0 0 25 25" fill="none" xmlns="http://www.w3.org/2000/svg">
<path d="M19.7916 4.16666H5.20825C4.37945 4.16666 3.58459 4.4959 2.99854 5.08195C2.41249 5.668 2.08325 6.46285 2.08325 7.29166V17.7083C2.08325 18.5371 2.41249 19.332 2.99854 19.918C3.58459 20.5041 4.37945 20.8333 5.20825 20.8333H19.7916C20.6204 20.8333 21.4152 20.5041 22.0013 19.918C22.5873 19.332 22.9166 18.5371 22.9166 17.7083V7.29166C22.9166 6.46285 22.5873 5.668 22.0013 5.08195C21.4152 4.4959 20.6204 4.16666 19.7916 4.16666ZM19.0937 6.24999L12.4999 11.1979L5.90617 6.24999H19.0937ZM19.7916 18.75H5.20825C4.93198 18.75 4.66703 18.6402 4.47168 18.4449C4.27633 18.2495 4.16659 17.9846 4.16659 17.7083V7.55207L11.8749 13.3333C12.0552 13.4686 12.2745 13.5417 12.4999 13.5417C12.7253 13.5417 12.9446 13.4686 13.1249 13.3333L20.8333 7.55207V17.7083C20.8333 17.9846 20.7235 18.2495 20.5282 18.4449C20.3328 18.6402 20.0679 18.75 19.7916 18.75Z" fill="#386BED"/>
</svg>
