<svg width="25" height="25" viewBox="0 0 25 25" fill="none" xmlns="http://www.w3.org/2000/svg">
<path d="M16.9167 22.9167C16.6404 22.9167 16.3754 22.8069 16.1801 22.6116C15.9847 22.4162 15.875 22.1513 15.875 21.875V19.1667C15.9074 18.8551 15.874 18.5403 15.7771 18.2424C15.6802 17.9446 15.522 17.6704 15.3125 17.4375C15.1828 17.2969 15.0944 17.1232 15.0569 16.9356C15.0194 16.748 15.0342 16.5537 15.0999 16.374C15.1655 16.1943 15.2794 16.0361 15.429 15.9169C15.5786 15.7976 15.7581 15.7219 15.9479 15.6979C18.4896 15.3958 20.8333 14.5833 20.8333 10.1771C20.8341 9.35425 20.5913 8.5496 20.1354 7.86459C19.7147 7.23399 19.5612 6.46237 19.7083 5.71876C19.8022 5.23367 19.8022 4.73509 19.7083 4.25001C18.9283 4.51373 18.1939 4.89675 17.5313 5.38542C17.406 5.4744 17.2625 5.53455 17.1113 5.56156C16.96 5.58857 16.8046 5.58178 16.6563 5.54167C14.7764 5.01048 12.7861 5.01048 10.9063 5.54167C10.7579 5.58178 10.6025 5.58857 10.4512 5.56156C10.3 5.53455 10.1565 5.4744 10.0313 5.38542C9.36452 4.89109 8.62232 4.50768 7.83333 4.25001C7.73428 4.73458 7.73428 5.23418 7.83333 5.71876C7.96988 6.47173 7.80934 7.24832 7.38542 7.88542C6.93152 8.57524 6.68896 9.38259 6.6875 10.2083C6.6875 14.2604 8.64583 15.3438 11.5833 15.7188C11.7756 15.7426 11.9573 15.8196 12.1082 15.941C12.2591 16.0625 12.3731 16.2236 12.4375 16.4063C12.4981 16.5835 12.5097 16.7738 12.4712 16.9571C12.4327 17.1405 12.3455 17.31 12.2188 17.4479C12.0161 17.6645 11.8606 17.9207 11.762 18.2004C11.6634 18.4801 11.6239 18.7772 11.6458 19.0729V21.875C11.6458 22.1513 11.5361 22.4162 11.3407 22.6116C11.1454 22.8069 10.8804 22.9167 10.6042 22.9167C10.3279 22.9167 10.0629 22.8069 9.8676 22.6116C9.67225 22.4162 9.5625 22.1513 9.5625 21.875V21.2813C8.53892 21.399 7.50212 21.2618 6.54436 20.882C5.5866 20.5021 4.7376 19.8914 4.07292 19.1042C3.73126 18.7255 3.32134 18.4145 2.86459 18.1875C2.7319 18.1533 2.60724 18.0933 2.49774 18.0109C2.38824 17.9286 2.29603 17.8254 2.22639 17.7074C2.15674 17.5894 2.11102 17.4588 2.09184 17.3232C2.07266 17.1875 2.08039 17.0494 2.11459 16.9167C2.14878 16.784 2.20878 16.6593 2.29116 16.5498C2.37353 16.4403 2.47666 16.3481 2.59467 16.2785C2.71268 16.2088 2.84325 16.1631 2.97893 16.1439C3.1146 16.1247 3.25273 16.1325 3.38542 16.1667C4.18672 16.4586 4.90271 16.9455 5.46875 17.5833C6.51042 18.625 7.55208 19.5417 9.53125 19.1667C9.49645 18.6074 9.57803 18.047 9.77083 17.5208C7.625 16.9792 4.5625 15.4375 4.5625 10.2292C4.55976 8.99545 4.9222 7.78852 5.60417 6.76042C5.73084 6.57063 5.77935 6.33927 5.73959 6.11459C5.52909 4.99019 5.64848 3.8289 6.08334 2.77084C6.14242 2.62976 6.23185 2.50342 6.34527 2.40081C6.45869 2.29819 6.59332 2.22181 6.73958 2.17709C7.09375 2.07292 8.36458 1.86459 10.7708 3.42709C12.7187 2.95834 14.75 2.95834 16.6979 3.42709C19.1042 1.86459 20.375 2.06251 20.7188 2.17709C20.865 2.22181 20.9996 2.29819 21.1131 2.40081C21.2265 2.50342 21.3159 2.62976 21.375 2.77084C21.8107 3.83233 21.9301 4.9972 21.7188 6.12501C21.6974 6.22662 21.6966 6.33147 21.7163 6.43342C21.7359 6.53536 21.7757 6.63237 21.8333 6.71876C22.5173 7.74981 22.8798 8.96066 22.875 10.1979C22.875 15.4792 19.8333 17.0104 17.6667 17.4896C17.8575 18.0485 17.9354 18.6399 17.8958 19.2292V21.875C17.8963 22.1408 17.7952 22.3967 17.6132 22.5903C17.4311 22.784 17.182 22.9007 16.9167 22.9167Z" fill="#F2F2F2"/>
</svg>
