<svg width="25" height="25" viewBox="0 0 25 25" fill="none" xmlns="http://www.w3.org/2000/svg">
<path d="M20.8333 22.9167H19.0938C18.5412 22.9167 18.0113 22.6972 17.6206 22.3065C17.2299 21.9158 17.0104 21.3859 17.0104 20.8333V15.2396C17.0197 15.0202 16.9534 14.8043 16.8226 14.6279C16.6917 14.4516 16.5043 14.3255 16.2917 14.2708C16.1679 14.252 16.0416 14.2599 15.9212 14.2941C15.8008 14.3282 15.6892 14.3878 15.5938 14.4688C15.4956 14.5521 15.4167 14.6558 15.3627 14.7728C15.3088 14.8897 15.281 15.017 15.2813 15.1458V20.8333C15.2813 21.3859 15.0618 21.9158 14.6711 22.3065C14.2804 22.6972 13.7505 22.9167 13.1979 22.9167H11.4583C10.9058 22.9167 10.3759 22.6972 9.98519 22.3065C9.59449 21.9158 9.375 21.3859 9.375 20.8333V15.1458C9.375 13.3501 10.0884 11.6279 11.3581 10.3581C12.6279 9.08835 14.3501 8.375 16.1458 8.375C17.9416 8.375 19.6638 9.08835 20.9335 10.3581C22.2033 11.6279 22.9167 13.3501 22.9167 15.1458V20.8333C22.9167 21.3859 22.6972 21.9158 22.3065 22.3065C21.9158 22.6972 21.3859 22.9167 20.8333 22.9167ZM16.1458 12.1771C16.3089 12.1668 16.4724 12.1668 16.6354 12.1771C17.3348 12.3116 17.9644 12.6881 18.4139 13.2404C18.8634 13.7928 19.1041 14.4858 19.0938 15.1979V20.8333H20.8333V15.1458C20.8333 13.9026 20.3395 12.7103 19.4604 11.8313C18.5813 10.9522 17.389 10.4583 16.1458 10.4583C14.9026 10.4583 13.7103 10.9522 12.8313 11.8313C11.9522 12.7103 11.4583 13.9026 11.4583 15.1458V20.8333H13.1979V15.1458C13.1979 14.3621 13.5078 13.6101 14.0601 13.0539C14.6123 12.4978 15.3621 12.1826 16.1458 12.1771Z" fill="#F2F2F2"/>
<path d="M6.25 22.9167H4.16667C3.61413 22.9167 3.08423 22.6972 2.69353 22.3065C2.30283 21.9158 2.08334 21.3859 2.08334 20.8333V10.4167C2.08334 9.86413 2.30283 9.33422 2.69353 8.94352C3.08423 8.55282 3.61413 8.33333 4.16667 8.33333H6.25C6.80254 8.33333 7.33244 8.55282 7.72314 8.94352C8.11384 9.33422 8.33334 9.86413 8.33334 10.4167V20.8333C8.33334 21.3859 8.11384 21.9158 7.72314 22.3065C7.33244 22.6972 6.80254 22.9167 6.25 22.9167ZM4.16667 10.4167V20.8333H6.25V10.4167H4.16667Z" fill="#F2F2F2"/>
<path d="M5.20833 7.29167C4.59026 7.29167 3.98608 7.1084 3.47217 6.76502C2.95827 6.42164 2.55773 5.93358 2.32121 5.36256C2.08468 4.79154 2.0228 4.16321 2.14338 3.55702C2.26395 2.95083 2.56158 2.394 2.99862 1.95696C3.43566 1.51993 3.99248 1.2223 4.59867 1.10172C5.20486 0.98114 5.8332 1.04303 6.40422 1.27955C6.97523 1.51607 7.46329 1.91661 7.80667 2.43052C8.15005 2.94442 8.33333 3.54861 8.33333 4.16667C8.33333 4.99548 8.00409 5.79033 7.41804 6.37638C6.83199 6.96243 6.03713 7.29167 5.20833 7.29167ZM5.20833 3.12501C5.00231 3.12501 4.80091 3.1861 4.62961 3.30056C4.45831 3.41502 4.3248 3.57771 4.24595 3.76804C4.16711 3.95838 4.14649 4.16783 4.18668 4.36989C4.22687 4.57196 4.32608 4.75756 4.47176 4.90324C4.61744 5.04892 4.80305 5.14813 5.00511 5.18832C5.20717 5.22852 5.41662 5.20789 5.60696 5.12905C5.7973 5.05021 5.95998 4.91669 6.07444 4.74539C6.1889 4.57409 6.25 4.3727 6.25 4.16667C6.25 3.89041 6.14025 3.62545 5.9449 3.4301C5.74955 3.23475 5.4846 3.12501 5.20833 3.12501Z" fill="#F2F2F2"/>
</svg>
