<svg width="30" height="30" viewBox="0 0 30 30" fill="none" xmlns="http://www.w3.org/2000/svg">
<path d="M15.0001 27.3125C14.5633 27.3193 14.1323 27.2116 13.7501 27L13.3751 26.7875C10.4542 25.1349 8.02418 22.7368 6.33319 19.838C4.64221 16.9391 3.75084 13.6435 3.7501 10.2875V10.1125C3.74614 9.66984 3.85977 9.23408 4.07939 8.84975C4.29901 8.46542 4.61674 8.14629 5.0001 7.92498L13.7501 2.99998C14.1301 2.78055 14.5613 2.66504 15.0001 2.66504C15.4389 2.66504 15.8701 2.78055 16.2501 2.99998L25.0001 7.92498C25.3835 8.14629 25.7012 8.46542 25.9208 8.84975C26.1404 9.23408 26.2541 9.66984 26.2501 10.1125V10.2875C26.2469 13.6459 25.3517 16.9433 23.6562 19.8423C21.9607 22.7414 19.5257 25.1381 16.6001 26.7875L16.2251 27C15.8503 27.2074 15.4285 27.315 15.0001 27.3125ZM15.0001 5.18748L6.2501 10.1125V10.2875C6.2522 13.2013 7.02885 16.0623 8.50048 18.5772C9.97211 21.0922 12.0858 23.1707 14.6251 24.6L15.0001 24.8125L15.3751 24.6C17.9144 23.1707 20.0281 21.0922 21.4997 18.5772C22.9714 16.0623 23.748 13.2013 23.7501 10.2875V10.1125L15.0001 5.18748Z" fill="#F2F2F2"/>
</svg>
