<svg width="30" height="33" viewBox="0 0 30 33" fill="none" xmlns="http://www.w3.org/2000/svg">
<path d="M21.25 2.67857H8.75C7.75544 2.67857 6.80161 3.10188 6.09835 3.85538C5.39509 4.60887 5 5.63083 5 6.69643V25.4464C5 26.512 5.39509 27.534 6.09835 28.2875C6.80161 29.041 7.75544 29.4643 8.75 29.4643H21.25C22.2446 29.4643 23.1984 29.041 23.9017 28.2875C24.6049 27.534 25 26.512 25 25.4464V6.69643C25 5.63083 24.6049 4.60887 23.9017 3.85538C23.1984 3.10188 22.2446 2.67857 21.25 2.67857ZM22.5 25.4464C22.5 25.8016 22.3683 26.1423 22.1339 26.3934C21.8995 26.6446 21.5815 26.7857 21.25 26.7857H8.75C8.41848 26.7857 8.10054 26.6446 7.86612 26.3934C7.6317 26.1423 7.5 25.8016 7.5 25.4464V6.69643C7.5 6.34123 7.6317 6.00058 7.86612 5.74941C8.10054 5.49825 8.41848 5.35715 8.75 5.35715H21.25C21.5815 5.35715 21.8995 5.49825 22.1339 5.74941C22.3683 6.00058 22.5 6.34123 22.5 6.69643V25.4464Z" fill="#F2F2F2"/>
<path d="M15 24.1071C16.0355 24.1071 16.875 23.2077 16.875 22.0982C16.875 20.9887 16.0355 20.0893 15 20.0893C13.9645 20.0893 13.125 20.9887 13.125 22.0982C13.125 23.2077 13.9645 24.1071 15 24.1071Z" fill="#F2F2F2"/>
<path d="M18.125 8.03572H11.875C11.5435 8.03572 11.2255 8.17682 10.9911 8.42799C10.7567 8.67915 10.625 9.01981 10.625 9.37501C10.625 9.73021 10.7567 10.0709 10.9911 10.322C11.2255 10.5732 11.5435 10.7143 11.875 10.7143H18.125C18.4565 10.7143 18.7745 10.5732 19.0089 10.322C19.2433 10.0709 19.375 9.73021 19.375 9.37501C19.375 9.01981 19.2433 8.67915 19.0089 8.42799C18.7745 8.17682 18.4565 8.03572 18.125 8.03572Z" fill="#F2F2F2"/>
</svg>
